<?xml version="1.0" encoding="UTF-8"?><svg xmlns="http://www.w3.org/2000/svg" xmlns:xlink="http://www.w3.org/1999/xlink" clip-rule="evenodd" fill-rule="evenodd" height="4335.5" image-rendering="optimizeQuality" preserveAspectRatio="xMidYMid meet" shape-rendering="geometricPrecision" text-rendering="geometricPrecision" version="1.0" viewBox="691.7 -0.3 2951.5 4335.5" width="2951.5" zoomAndPan="magnify"><g><g fill="none" stroke="#000" stroke-linecap="round" stroke-linejoin="round" stroke-width="118.53"><path d="M2167 59c783,0 1417,634 1417,1416 0,544 -307,1016 -756,1254l-661 1024 -660 -1024c-449,-238 -756,-710 -756,-1254 0,-782 634,-1416 1416,-1416z"/><circle cx="2167" cy="1475" r="610"/><path d="M2425 3354c450,51 783,235 783,453 0,259 -466,469 -1041,469 -574,0 -1040,-210 -1040,-469 0,-218 333,-402 783,-453l257 399 258 -399z"/></g></g></svg>